<?xml version="1.0" standalone="no"?>
<!DOCTYPE svg PUBLIC "-//W3C//DTD SVG 20010904//EN"
 "http://www.w3.org/TR/2001/REC-SVG-20010904/DTD/svg10.dtd">
<svg version="1.0" xmlns="http://www.w3.org/2000/svg"
 width="4096.000000pt" height="4096.000000pt" viewBox="0 0 4096.000000 4096.000000"
 preserveAspectRatio="xMidYMid meet">
<metadata>
Created by potrace 1.14, written by Peter Selinger 2001-2017
</metadata>
<g transform="translate(0.000000,4096.000000) scale(0.100000,-0.100000)"
fill="#000000" stroke="none">
<path d="M19885 32879 c-110 -4 -261 -13 -335 -19 -235 -19 -462 -40 -540 -50
-41 -5 -151 -19 -245 -30 -567 -70 -1280 -213 -1825 -365 -202 -57 -228 -64
-340 -98 -263 -81 -652 -212 -815 -275 -217 -84 -271 -105 -355 -140 -52 -22
-138 -58 -190 -80 -132 -55 -327 -142 -465 -207 -124 -59 -367 -179 -384 -189
-6 -4 89 -107 212 -229 350 -348 664 -685 892 -957 49 -58 91 -107 94 -110 6
-5 96 -112 118 -140 6 -8 27 -33 45 -56 66 -81 98 -121 169 -209 39 -49 78
-99 87 -110 10 -11 77 -101 151 -198 74 -98 138 -180 143 -183 4 -3 124 33
265 81 142 47 272 89 288 94 71 23 345 101 381 110 21 5 95 23 164 41 324 83
715 159 1085 211 83 11 161 22 175 24 14 2 90 11 170 19 80 9 161 18 180 21
19 3 141 12 270 20 129 9 291 20 360 26 80 7 401 9 895 7 760 -4 970 -12 1310
-48 50 -5 133 -14 185 -20 84 -9 213 -26 445 -60 240 -35 699 -122 930 -176
83 -20 470 -118 570 -144 124 -33 437 -129 642 -196 39 -13 78 -24 87 -24 14
0 37 29 120 145 75 106 329 445 351 469 6 6 33 40 60 76 27 36 52 67 55 70 3
3 21 25 40 50 19 25 39 50 45 56 5 6 57 69 115 140 58 70 125 151 150 179 25
27 63 72 85 100 41 50 48 58 226 255 129 143 107 119 219 239 52 57 163 172
245 258 83 85 151 159 153 163 3 9 -42 32 -393 200 -1018 489 -2200 863 -3375
1069 -276 48 -371 63 -635 96 -728 92 -1514 124 -2280 94z"/>
<path d="M34639 28854 c-1 -5 -1 -13 0 -17 1 -4 -12 -19 -29 -33 -39 -33 -46
-61 -66 -254 -8 -88 -33 -619 -33 -737 -1 -82 -5 -133 -11 -133 -5 0 -10 -18
-10 -40 0 -22 5 -40 10 -40 6 0 10 -33 10 -80 0 -64 -3 -80 -15 -80 -11 0 -15
-11 -15 -40 0 -27 4 -40 13 -40 11 0 15 -59 20 -298 8 -345 14 -422 33 -422
10 0 14 -13 14 -40 0 -29 4 -40 15 -40 11 0 15 -11 15 -40 0 -30 7 -47 25 -66
14 -14 25 -36 25 -49 0 -25 28 -60 110 -136 17 -16 36 -29 41 -29 5 0 9 -4 9
-10 0 -5 12 -10 28 -10 15 0 34 -4 42 -10 22 -14 1 -18 -107 -22 -52 -3 -98
-9 -106 -16 -11 -9 -16 -10 -19 -2 -2 8 -20 9 -54 5 -50 -7 -52 -9 -64 -48 -7
-23 -21 -49 -31 -58 -23 -20 -24 -46 -4 -97 9 -22 15 -43 14 -48 -4 -25 2 -64
10 -60 5 4 11 0 14 -6 2 -7 8 -9 13 -5 5 5 1 14 -9 21 -18 14 -24 46 -7 46 6
0 10 -5 10 -11 0 -5 5 -7 10 -4 6 4 10 -6 10 -22 0 -27 2 -28 53 -29 28 -1 68
-2 88 -3 27 -1 45 -10 72 -36 21 -20 37 -43 37 -51 0 -8 9 -33 20 -55 10 -23
22 -62 26 -87 4 -26 13 -59 20 -74 8 -15 14 -45 14 -68 0 -22 4 -40 9 -40 5 0
11 -26 14 -57 2 -32 11 -121 18 -198 28 -302 10 -1806 -23 -1826 -5 -3 -12
-64 -15 -135 -3 -72 -11 -132 -16 -136 -6 -4 -10 -24 -9 -45 1 -21 -5 -95 -14
-165 -8 -69 -15 -132 -13 -140 1 -7 1 -32 0 -55 -1 -31 -5 -43 -16 -43 -12 0
-15 -16 -15 -81 0 -44 -5 -89 -11 -100 -6 -11 -12 -38 -14 -60 -2 -21 -7 -48
-10 -59 -4 -12 -2 -20 5 -20 8 0 9 -7 5 -17 -9 -23 -23 -103 -40 -227 -7 -54
-18 -102 -23 -105 -5 -3 -12 -16 -16 -28 -6 -17 -3 -23 8 -23 20 0 20 -5 -1
-36 -9 -15 -19 -59 -23 -106 -5 -58 -12 -85 -24 -93 -11 -9 -16 -28 -16 -64 0
-28 -6 -60 -12 -71 -11 -17 -10 -22 0 -29 12 -7 11 -14 -2 -39 -14 -27 -21
-58 -43 -200 -3 -18 -9 -35 -14 -38 -5 -3 -9 -20 -9 -39 0 -18 -4 -35 -9 -37
-4 -1 -12 -13 -15 -25 -6 -17 -3 -23 8 -23 9 0 16 -5 16 -11 0 -5 -4 -8 -9 -5
-5 3 -12 -11 -16 -32 -7 -40 -27 -104 -35 -112 -3 -3 -6 -23 -7 -45 -3 -67
-15 -129 -28 -150 -7 -11 -18 -49 -25 -85 -7 -36 -18 -74 -24 -85 -6 -11 -13
-45 -14 -75 -2 -30 -8 -60 -14 -67 -5 -7 -18 -49 -28 -94 -10 -45 -23 -86 -29
-92 -6 -6 -11 -23 -11 -38 0 -15 -4 -30 -9 -33 -9 -6 -22 -55 -41 -151 -7 -33
-16 -68 -21 -77 -5 -10 -9 -28 -9 -41 0 -13 -4 -27 -10 -33 -14 -14 -61 -154
-67 -199 -2 -22 -12 -58 -22 -80 -16 -36 -32 -87 -31 -100 0 -3 -6 -18 -15
-35 -8 -16 -15 -40 -15 -53 0 -12 -4 -27 -9 -33 -4 -5 -16 -39 -26 -77 -10
-37 -24 -72 -31 -78 -8 -6 -14 -26 -14 -44 0 -18 -7 -38 -15 -45 -14 -12 -28
-53 -39 -115 -3 -16 -10 -31 -16 -33 -5 -2 -10 -12 -10 -23 0 -24 -59 -200
-71 -213 -5 -6 -9 -20 -9 -32 0 -20 -26 -81 -41 -94 -9 -8 -39 -95 -39 -113 0
-9 -9 -34 -20 -54 -11 -21 -23 -52 -26 -70 -3 -18 -12 -37 -20 -44 -8 -6 -14
-22 -14 -35 0 -12 -4 -26 -10 -29 -5 -3 -17 -32 -26 -63 -9 -31 -23 -66 -30
-77 -8 -11 -14 -31 -14 -46 0 -15 -6 -29 -14 -32 -7 -3 -19 -27 -25 -54 -7
-26 -21 -58 -32 -69 -11 -12 -19 -28 -18 -35 2 -8 -9 -38 -24 -67 -15 -30 -27
-62 -27 -73 0 -10 -4 -19 -9 -19 -5 0 -12 -15 -16 -32 -4 -18 -9 -36 -10 -40
-1 -5 -3 -15 -4 -25 0 -9 -4 -14 -7 -11 -4 5 18 191 46 373 54 349 110 868
130 1215 30 490 22 1406 -15 1841 -124 1444 -434 2696 -983 3969 -122 285
-405 867 -512 1055 -12 22 -52 92 -87 155 -170 300 -250 429 -502 810 -128
193 -279 410 -305 438 -9 10 -19 -18 -45 -130 -248 -1076 -579 -2269 -943
-3391 l-80 -248 22 -52 c12 -29 26 -56 30 -62 55 -74 452 -848 569 -1110 198
-442 404 -969 497 -1275 7 -25 24 -81 38 -125 25 -78 66 -218 106 -360 26 -93
88 -335 105 -410 7 -33 23 -103 35 -155 136 -603 240 -1350 280 -2025 30 -514
30 -514 41 -610 9 -70 7 -152 -5 -355 -21 -339 -41 -478 -112 -785 -90 -384
-306 -968 -454 -1225 -20 -36 -52 -92 -70 -125 -18 -33 -69 -122 -114 -197
-44 -76 -92 -157 -106 -181 -14 -23 -37 -59 -52 -78 -16 -20 -28 -41 -28 -46
0 -6 -7 -13 -15 -17 -8 -3 -15 -12 -15 -21 0 -8 -3 -15 -8 -15 -4 0 -12 -8
-17 -18 -52 -97 -253 -374 -444 -616 -36 -44 -68 -83 -71 -86 -3 -3 -33 -39
-67 -80 -33 -41 -69 -84 -80 -95 -10 -11 -73 -81 -140 -156 -127 -142 -537
-558 -683 -695 -155 -144 -324 -294 -414 -369 -27 -22 -54 -44 -60 -50 -6 -5
-45 -37 -86 -70 -41 -33 -77 -62 -80 -66 -4 -4 -93 -74 -245 -194 -21 -16 -97
-74 -169 -127 -72 -53 -135 -101 -141 -105 -86 -70 -649 -451 -860 -581 -71
-45 -161 -101 -200 -125 -80 -51 -471 -278 -572 -333 -37 -20 -97 -53 -133
-72 -493 -273 -1241 -623 -1775 -832 -88 -34 -194 -76 -235 -92 -186 -74 -598
-216 -830 -288 -58 -17 -116 -36 -129 -41 -21 -9 -185 -55 -386 -111 -115 -31
-454 -116 -535 -134 -226 -49 -396 -82 -565 -110 -49 -8 -112 -19 -140 -24
-90 -18 -417 -58 -555 -69 -74 -6 -180 -17 -235 -23 -138 -17 -859 -17 -985 0
-52 7 -169 19 -260 28 -152 13 -220 22 -415 54 -38 6 -108 18 -155 25 -238 38
-654 132 -965 217 -82 22 -163 44 -180 48 -172 43 -960 303 -1060 350 -11 5
-58 24 -105 41 -169 62 -207 77 -345 134 -485 199 -1168 518 -1520 710 -33 18
-95 51 -137 74 -168 89 -235 125 -270 148 -21 13 -40 23 -43 23 -2 0 -34 18
-70 40 -36 22 -68 40 -70 40 -14 0 -585 347 -744 452 -57 37 -106 68 -110 68
-4 0 -16 8 -27 18 -10 10 -50 37 -89 61 -235 147 -1079 759 -1210 878 -11 10
-83 70 -160 133 -77 63 -172 141 -211 175 -38 33 -95 81 -125 106 -30 26 -74
64 -98 85 -24 22 -53 47 -64 56 -32 28 -254 235 -362 338 -164 156 -397 394
-562 575 -85 93 -89 99 -163 185 -25 29 -49 58 -55 64 -12 13 -136 162 -192
231 -22 28 -84 109 -137 180 -54 72 -104 139 -113 149 -32 39 -252 375 -326
496 -198 329 -369 694 -478 1024 -147 444 -185 755 -160 1311 33 733 120 1467
256 2150 75 378 229 998 319 1285 13 41 31 100 41 130 27 91 124 388 162 495
62 177 94 269 113 320 46 121 143 373 155 400 8 17 23 55 35 85 42 106 183
436 226 528 24 52 44 95 44 98 0 2 29 65 65 140 36 75 65 138 65 141 0 2 36
77 80 165 44 89 80 172 80 184 0 12 -18 73 -39 135 -55 160 -186 568 -248 774
-8 28 -23 75 -33 105 -10 30 -53 172 -95 315 -166 563 -239 821 -315 1110 -24
88 -64 241 -90 340 -51 189 -145 567 -180 720 -11 50 -25 108 -31 130 -6 22
-12 44 -13 49 -6 31 -186 -238 -468 -699 -49 -80 -139 -239 -282 -495 -85
-151 -349 -690 -435 -885 -46 -104 -95 -215 -109 -245 -13 -30 -39 -93 -57
-140 -45 -117 -56 -140 -69 -140 -6 0 -29 28 -51 61 -34 52 -155 221 -182 254
-5 6 -31 39 -58 75 -45 60 -173 219 -185 230 -3 3 -43 50 -90 105 -121 143
-154 179 -350 375 -96 97 -209 202 -250 235 -41 33 -79 65 -85 71 -15 16 -171
134 -240 182 -33 23 -79 55 -102 71 -66 47 -144 88 -190 100 -24 7 -47 20 -53
31 -34 64 -335 306 -575 462 -359 234 -630 362 -975 462 -265 76 -565 110
-770 87 -58 -7 -109 -16 -114 -21 -10 -10 31 -33 44 -25 6 4 18 -8 28 -25 14
-26 21 -30 47 -26 17 2 24 2 18 -1 -7 -2 -13 -11 -13 -19 0 -10 13 -14 46 -14
25 0 54 -5 65 -11 11 -5 30 -11 42 -12 34 -3 87 -30 87 -44 0 -12 21 -17 58
-16 7 1 31 -18 53 -40 28 -30 42 -38 47 -29 6 8 18 2 42 -23 22 -23 43 -35 61
-35 15 0 29 -7 33 -16 3 -9 13 -14 21 -10 8 3 27 -9 47 -29 17 -19 34 -32 37
-30 3 3 22 -11 43 -32 21 -21 38 -31 38 -23 0 9 7 7 20 -8 11 -12 20 -27 20
-34 0 -7 9 -19 19 -25 16 -10 20 -10 23 5 3 12 11 6 31 -25 28 -43 47 -61 47
-44 0 18 36 -9 55 -42 13 -22 19 -26 26 -16 7 11 14 7 34 -16 13 -16 24 -38
25 -47 0 -11 21 -27 59 -45 34 -17 65 -39 74 -56 9 -15 27 -32 40 -38 14 -6
30 -22 35 -35 6 -12 24 -31 39 -41 57 -38 141 -125 138 -144 -5 -24 12 -34 31
-18 12 10 13 9 9 -3 -7 -19 6 -17 153 18 126 30 335 62 458 71 97 6 116 1 174
-54 27 -25 86 -73 139 -113 19 -14 54 -44 80 -67 25 -24 52 -43 59 -43 6 0 30
-18 52 -40 22 -22 45 -40 50 -40 6 0 10 -4 10 -9 0 -5 49 -60 110 -123 60 -62
116 -120 123 -128 8 -8 21 -22 31 -30 36 -32 76 -83 76 -96 0 -8 9 -14 21 -14
14 0 25 -12 37 -40 9 -22 20 -40 23 -40 15 0 102 -95 115 -125 14 -35 81 -108
108 -118 9 -4 16 -16 16 -27 0 -11 5 -20 10 -20 6 0 10 -5 10 -11 0 -6 13 -22
30 -36 16 -13 30 -33 30 -44 0 -10 5 -19 10 -19 6 0 17 -18 26 -40 10 -25 23
-40 33 -40 10 0 26 -18 39 -42 45 -87 64 -118 73 -118 5 0 16 -18 25 -40 10
-25 23 -40 33 -40 17 0 51 -57 51 -84 0 -8 7 -19 15 -26 8 -7 15 -21 15 -31 0
-11 7 -19 15 -19 8 0 22 -18 31 -40 9 -22 22 -40 28 -40 7 0 23 -23 36 -50 13
-28 30 -56 37 -62 7 -6 13 -19 13 -29 0 -11 6 -19 14 -19 8 0 18 -10 22 -22
11 -37 26 -52 35 -36 7 10 9 9 9 -4 0 -10 -7 -18 -15 -18 -21 0 -19 -6 13 -47
15 -20 26 -38 25 -40 -9 -11 -1 -14 11 -4 20 17 27 1 22 -51 -4 -46 -21 -111
-68 -253 -37 -115 -64 -205 -148 -500 -254 -897 -411 -1828 -460 -2726 -28
-518 -31 -733 -15 -1117 19 -458 48 -833 91 -1187 18 -145 76 -529 98 -645 44
-232 58 -321 53 -333 -3 -8 -32 -23 -65 -35 -33 -12 -65 -29 -72 -37 -7 -8
-20 -15 -30 -15 -23 0 -285 -134 -398 -204 -93 -58 -172 -128 -172 -154 0 -7
4 -10 10 -7 5 3 7 0 4 -9 -6 -15 0 -17 68 -31 10 -1 16 2 15 8 -1 6 14 15 33
21 19 5 37 12 40 15 3 4 22 15 43 26 20 11 37 25 37 32 0 7 9 13 19 13 11 0
22 8 25 18 4 11 18 25 32 33 14 7 36 25 47 39 12 14 42 34 66 45 43 19 43 19
23 36 -12 9 -18 19 -15 23 11 11 23 6 23 -9 0 -8 5 -15 10 -15 6 0 10 6 10 13
0 16 61 57 84 57 11 0 16 5 13 14 -4 9 4 16 25 20 18 4 32 14 35 26 3 13 14
20 29 20 12 0 26 5 29 10 16 27 36 6 54 -57 40 -137 81 -293 130 -488 27 -110
70 -270 94 -355 270 -938 677 -1907 1140 -2715 44 -77 98 -171 120 -210 111
-194 405 -650 562 -870 261 -366 304 -428 304 -442 1 -19 -33 -73 -46 -73 -7
0 -13 -7 -13 -15 0 -9 -11 -28 -25 -43 -17 -19 -25 -38 -25 -64 0 -36 -2 -38
-30 -38 -28 0 -30 -2 -30 -41 0 -40 -1 -41 -29 -37 -23 3 -27 1 -24 -13 7 -25
-28 -68 -54 -69 -19 0 -23 -6 -23 -30 0 -16 -4 -30 -10 -30 -5 0 -10 -4 -10
-8 0 -5 -20 -31 -45 -58 -25 -27 -51 -64 -57 -81 -7 -18 -18 -33 -25 -33 -7 0
-13 -5 -13 -11 0 -14 -55 -69 -69 -69 -6 0 -11 -6 -11 -12 0 -7 -18 -29 -40
-48 -22 -19 -40 -40 -40 -46 0 -6 -22 -27 -50 -45 -50 -34 -60 -48 -37 -50 6
-1 -1 -5 -18 -9 -27 -7 -28 -8 -5 -8 30 -1 76 16 48 17 -10 1 -18 5 -18 9 0 5
36 14 80 21 51 9 80 18 80 26 0 7 14 18 30 25 17 7 30 16 30 21 0 5 11 7 24 3
13 -3 27 -1 30 5 4 6 16 11 27 11 14 0 19 7 19 26 0 14 4 23 9 20 8 -5 53 45
76 85 6 10 30 39 54 64 23 25 38 45 32 45 -6 0 -11 18 -11 40 0 29 4 40 15 40
11 0 15 11 15 40 0 36 3 40 25 40 23 0 25 4 25 40 l0 40 40 0 c39 0 40 1 40
35 0 26 9 44 38 75 22 22 37 42 34 45 -3 3 3 5 13 5 15 0 16 3 7 12 -7 7 -12
16 -12 22 0 6 5 5 12 -2 7 -7 21 -12 31 -12 16 0 17 2 7 15 -7 9 -10 18 -7 21
7 7 28 -14 112 -110 33 -38 65 -74 70 -80 6 -6 30 -36 55 -66 25 -30 49 -60
55 -66 5 -6 39 -44 75 -84 36 -40 70 -78 75 -84 6 -6 28 -31 49 -56 81 -93
320 -350 462 -496 54 -56 308 -301 450 -434 155 -146 398 -361 559 -496 772
-645 1625 -1200 2555 -1661 348 -172 579 -277 870 -395 41 -16 89 -36 105 -43
176 -76 677 -253 989 -350 931 -288 1942 -480 2926 -554 420 -32 523 -36 1045
-35 458 0 602 4 865 22 521 36 1015 96 1475 178 234 42 284 52 440 84 408 85
833 197 1250 328 357 113 734 251 1110 407 465 192 1045 480 1505 745 69 40
145 84 170 98 25 13 52 31 61 38 8 8 19 14 22 14 4 0 31 15 60 34 28 18 115
73 192 122 155 98 510 340 650 442 138 101 279 206 285 212 3 3 25 21 50 40
150 114 606 494 660 550 8 8 62 58 120 110 256 231 706 681 910 910 47 52 104
115 126 140 23 25 72 81 110 125 38 44 71 82 74 85 3 3 52 64 110 135 58 72
110 137 117 145 7 8 67 85 133 170 370 478 764 1082 1087 1670 151 275 422
840 538 1120 97 236 180 443 196 487 10 29 42 112 73 185 30 73 69 169 86 213
17 44 37 87 45 95 7 8 21 35 31 60 10 25 30 63 45 85 15 22 25 43 22 48 -2 4
8 22 24 40 16 18 35 47 42 65 7 17 17 29 23 26 5 -3 6 5 2 20 -5 20 1 34 25
61 17 20 31 42 31 51 0 13 26 61 40 74 17 15 177 338 212 428 7 17 16 32 19
32 4 0 16 23 28 50 12 28 26 50 31 50 6 0 10 10 10 21 0 12 11 42 24 68 13 25
31 67 41 94 9 26 21 47 26 47 5 0 8 3 7 8 -2 9 8 34 40 102 14 30 26 57 26 60
1 3 20 43 43 90 23 47 45 99 49 115 3 17 12 37 19 45 7 8 16 26 20 40 4 13 14
30 21 38 8 7 14 20 14 28 0 14 34 94 66 156 8 14 14 33 14 41 0 8 6 20 13 26
8 6 20 30 27 53 8 24 17 48 21 53 4 6 21 46 39 90 18 44 36 89 40 100 5 11 16
42 26 68 9 26 21 50 25 53 5 3 9 12 9 21 0 8 6 29 14 46 8 18 22 55 32 82 9
28 21 54 26 59 4 6 8 16 8 23 0 7 11 37 25 67 14 30 25 61 25 70 0 8 6 27 14
43 17 35 33 79 57 162 10 35 22 68 28 75 5 6 12 27 16 46 4 19 11 40 15 45 8
11 58 146 66 180 5 19 42 144 84 280 10 33 32 112 50 175 18 63 39 138 47 165
9 28 16 67 17 88 0 20 4 37 8 37 4 0 10 17 13 38 15 90 38 171 47 166 6 -4 7
2 3 16 -5 17 -4 20 5 15 10 -6 11 -1 6 19 -3 14 -2 26 3 26 5 0 9 10 9 23 1
37 47 199 55 191 7 -8 10 19 7 74 -1 18 3 32 10 32 7 0 9 8 5 20 -3 10 -2 27
3 37 9 16 21 77 22 111 0 6 7 12 15 12 8 0 14 3 13 8 -4 15 14 102 20 98 4 -2
7 26 8 62 0 41 5 67 12 70 7 2 12 17 12 33 0 16 7 46 15 66 8 19 15 53 15 73
0 21 4 40 9 42 4 2 11 14 15 28 6 19 5 21 -3 10 -8 -11 -11 -4 -10 30 0 33 3
40 9 25 6 -16 9 -17 13 -5 20 64 26 91 32 133 6 45 24 66 26 30 0 -10 7 11 15
46 16 78 11 92 -10 25 -8 -27 -15 -40 -15 -30 -2 35 23 136 32 136 5 0 6 -12
2 -27 -4 -16 -3 -24 2 -20 4 5 8 39 8 77 0 52 4 73 19 89 12 13 19 37 20 68 0
26 4 50 7 53 5 4 46 247 53 310 1 14 5 32 8 40 3 8 18 114 32 235 15 121 33
270 40 330 8 61 17 148 21 195 3 47 12 157 20 245 35 390 48 979 33 1420 -7
196 -10 245 -28 435 -5 52 -12 136 -15 185 -4 50 -9 104 -11 120 -2 17 -7 115
-10 218 -8 205 -11 217 -64 217 -16 0 -53 9 -82 21 -29 12 -69 22 -88 24 -19
2 -48 8 -63 14 -16 6 -45 11 -65 12 -20 1 -48 4 -61 8 l-25 7 24 22 c25 24 93
31 105 11 4 -6 14 -7 24 -3 51 23 436 47 771 48 284 1 318 -1 348 -17 32 -18
32 -18 44 8 9 20 8 31 -3 53 -27 52 -70 82 -163 113 -50 18 -95 35 -101 40 -5
5 -14 9 -21 9 -23 0 -116 69 -135 99 -10 17 -23 31 -29 31 -5 0 -10 10 -10 23
0 12 -9 30 -20 40 -11 9 -20 26 -20 37 0 21 -26 80 -40 90 -10 8 -39 85 -45
122 -6 32 -40 108 -54 118 -5 4 -35 104 -58 200 -3 14 -14 36 -24 50 -10 14
-23 44 -29 68 -6 23 -15 42 -20 42 -6 0 -10 14 -10 30 0 29 -11 57 -36 90 -7
8 -15 30 -19 48 -3 17 -10 32 -13 32 -8 0 -25 46 -48 124 -7 27 -20 57 -29 66
-8 9 -15 27 -15 40 0 13 -7 31 -15 40 -8 9 -16 26 -18 38 -2 12 -7 25 -11 29
-12 13 -36 74 -36 93 0 10 -5 20 -10 22 -6 2 -12 14 -15 28 -3 13 -16 47 -30
76 -14 28 -25 58 -25 67 0 10 -4 17 -8 17 -9 0 -35 55 -47 98 -4 12 -11 22
-16 22 -5 0 -9 13 -9 29 0 17 -5 33 -10 36 -6 3 -19 25 -30 48 -11 23 -25 49
-30 57 -6 8 -24 45 -40 83 -17 37 -34 67 -39 67 -15 0 -33 52 -21 64 7 7 10 2
10 -17 0 -23 2 -26 13 -15 20 18 -42 82 -112 114 -59 27 -140 43 -142 28z
m-29092 -2460 c-3 -3 -12 -4 -19 -1 -8 3 -5 6 6 6 11 1 17 -2 13 -5z m1813
-9049 c0 -8 -4 -15 -10 -15 -5 0 -7 7 -4 15 4 8 8 15 10 15 2 0 4 -7 4 -15z"/>
<path d="M34511 25824 c0 -11 3 -14 6 -6 3 7 2 16 -1 19 -3 4 -6 -2 -5 -13z"/>
<path d="M4455 24883 c-38 -5 -166 -30 -225 -45 -58 -14 -261 -110 -279 -131
-7 -10 -19 -17 -25 -17 -6 0 -29 -17 -52 -38 -22 -20 -56 -51 -75 -67 -48 -43
-140 -153 -181 -217 -46 -72 -80 -158 -109 -278 -19 -77 -19 -411 0 -434 9
-10 11 -29 7 -53 -3 -21 -2 -30 2 -20 6 13 10 7 18 -27 8 -35 7 -43 -3 -39
-19 8 -16 -7 17 -75 17 -34 30 -66 30 -70 0 -13 108 -145 148 -180 53 -47 139
-104 197 -130 179 -79 429 -81 635 -5 66 24 151 63 160 74 3 3 12 8 20 11 34
12 178 129 235 190 54 57 117 137 153 193 68 107 138 300 154 425 45 360 -87
668 -357 835 -81 50 -216 99 -256 93 -15 -3 -26 -1 -23 4 5 8 -132 9 -191 1z
m-99 -924 c25 -7 44 -17 44 -25 0 -8 8 -14 18 -14 19 0 82 -55 82 -71 0 -5 7
-9 16 -9 14 0 15 -10 9 -77 -3 -43 -15 -96 -26 -119 -10 -22 -19 -45 -19 -51
0 -6 -11 -18 -24 -27 -14 -8 -27 -23 -31 -33 -6 -21 -85 -73 -108 -73 -9 0
-18 -4 -21 -9 -10 -15 -75 -20 -178 -14 l-99 6 -43 42 c-61 59 -96 146 -96
237 0 42 16 107 29 118 4 3 15 22 26 43 11 20 27 37 35 37 9 0 38 11 66 24 43
22 63 25 162 25 62 1 133 -4 158 -10z"/>
<path d="M5300 24867 c0 -8 10 -24 23 -34 39 -30 88 -90 94 -115 3 -13 7 -38
10 -56 4 -23 9 -30 17 -23 8 7 12 3 14 -13 1 -13 11 -45 22 -70 11 -26 20 -54
20 -62 0 -8 5 -14 10 -14 6 0 10 9 10 19 0 11 5 23 10 26 13 8 13 -11 -1 -36
-7 -14 -7 -29 2 -54 15 -40 29 -46 29 -12 0 42 19 -5 26 -66 6 -52 8 -56 21
-40 13 16 14 13 10 -32 -3 -27 -3 -42 0 -32 2 9 9 15 14 12 5 -4 6 -17 3 -31
-3 -13 -2 -30 4 -37 6 -6 13 -83 17 -171 9 -177 22 -189 32 -29 6 111 -10 293
-34 362 -32 97 -89 219 -130 279 -24 35 -43 65 -43 68 0 2 -29 32 -64 67 -112
109 -116 112 -116 94z"/>
<path d="M27185 22169 c-147 -11 -390 -72 -585 -146 -225 -86 -238 -91 -470
-195 -263 -118 -768 -390 -1144 -616 -65 -40 -120 -72 -123 -72 -2 0 -20 -11
-41 -24 -20 -13 -136 -85 -257 -159 -429 -262 -579 -361 -740 -490 -187 -149
-427 -399 -502 -525 -99 -164 -135 -243 -159 -342 -32 -135 -10 -186 100 -235
78 -35 178 -48 386 -51 183 -4 586 23 690 46 25 5 92 16 150 25 213 30 523 97
810 173 102 27 168 46 375 109 132 40 467 159 540 193 11 5 54 23 95 40 241
100 522 242 730 371 30 19 57 36 60 39 3 3 31 23 63 44 86 56 232 181 323 276
70 74 111 133 118 170 26 132 31 817 7 907 -5 21 -17 79 -27 128 -16 85 -25
113 -60 195 -46 106 -75 135 -146 143 -29 4 -62 6 -73 5 -11 0 -65 -4 -120 -9z"/>
<path d="M13586 22097 c-37 -48 -81 -151 -109 -253 -35 -124 -36 -136 -47
-360 -10 -203 3 -723 18 -751 24 -42 215 -220 362 -337 8 -6 65 -44 125 -84
61 -40 115 -76 121 -80 5 -4 21 -13 33 -20 181 -105 403 -213 656 -321 230
-98 666 -244 975 -326 52 -14 111 -30 130 -35 75 -21 210 -52 305 -71 55 -11
143 -29 195 -40 52 -11 151 -29 220 -40 69 -10 136 -21 150 -24 207 -35 392
-49 670 -49 233 -1 286 2 345 17 39 10 79 22 90 26 11 5 35 15 53 21 18 7 46
25 62 40 25 23 30 36 30 72 0 136 -131 399 -299 603 -161 195 -528 478 -929
716 -15 9 -65 40 -112 69 -47 29 -123 75 -169 102 -46 27 -97 58 -112 69 -15
10 -30 19 -33 19 -4 0 -23 11 -44 23 -20 13 -116 69 -212 124 -481 276 -1055
567 -1340 680 -36 14 -83 33 -105 43 -22 10 -51 21 -65 25 -14 4 -38 13 -55
20 -32 13 -143 49 -260 84 -167 50 -303 70 -477 70 l-147 1 -25 -33z"/>
<path d="M5405 22029 c-201 -25 -428 -137 -563 -279 -112 -117 -201 -282 -242
-445 -27 -107 -32 -314 -11 -409 50 -227 144 -395 308 -549 333 -314 822 -363
1193 -119 71 47 206 182 252 252 87 133 129 245 154 405 48 317 -59 639 -290
865 -164 160 -342 248 -569 279 -88 12 -131 12 -232 0z m19 -644 c27 -8 55
-24 63 -35 8 -11 20 -20 27 -20 8 0 30 -27 50 -61 l36 -60 0 -125 c0 -68 -4
-124 -8 -124 -5 0 -19 -22 -31 -50 -23 -50 -64 -85 -151 -130 -56 -28 -191
-28 -238 0 -18 11 -39 20 -47 20 -20 0 -84 43 -85 57 0 7 -9 17 -20 23 -21 11
-55 68 -46 78 3 3 0 12 -7 20 -8 10 -11 49 -10 122 1 110 11 139 67 203 9 9
16 21 16 25 0 12 61 46 105 58 60 17 222 16 279 -1z"/>
<path d="M35172 21975 c0 -16 2 -22 5 -12 2 9 2 23 0 30 -3 6 -5 -1 -5 -18z"/>
<path d="M6595 21840 c3 -5 8 -10 11 -10 2 0 4 5 4 10 0 6 -5 10 -11 10 -5 0
-7 -4 -4 -10z"/>
<path d="M6640 21778 c0 -9 3 -18 8 -20 9 -4 102 -189 102 -204 0 -7 7 -25 15
-40 8 -16 15 -39 15 -51 0 -13 4 -23 9 -23 5 0 11 -10 14 -22 3 -13 10 -41 16
-63 16 -59 41 -270 41 -342 0 -34 -5 -84 -11 -112 -5 -27 -9 -69 -7 -93 3 -42
3 -41 20 32 47 205 28 454 -48 657 -26 70 -87 188 -110 214 -8 8 -14 23 -14
32 0 9 -5 17 -11 17 -7 0 -18 8 -25 18 -12 15 -13 15 -14 0z"/>
<path d="M6815 20710 c3 -5 8 -10 11 -10 2 0 4 5 4 10 0 6 -5 10 -11 10 -5 0
-7 -4 -4 -10z"/>
<path d="M5476 17689 c2 -30 1 -45 -2 -34 -3 11 -11 25 -17 30 -7 6 -9 6 -5 2
18 -23 -42 -113 -87 -131 -9 -3 -14 -10 -10 -15 3 -5 1 -12 -5 -16 -5 -3 -10
0 -10 7 0 7 -10 -3 -21 -22 -12 -19 -25 -36 -30 -38 -5 -2 -9 -10 -9 -18 0 -8
-6 -14 -14 -14 -8 0 -22 -13 -30 -30 -9 -16 -23 -43 -31 -58 -8 -16 -26 -34
-39 -40 -17 -8 -27 -25 -37 -61 -7 -28 -18 -51 -24 -51 -7 0 -17 -19 -24 -42
-7 -24 -17 -56 -23 -73 -5 -16 -14 -50 -18 -75 -4 -24 -13 -46 -19 -48 -6 -2
-11 -8 -11 -14 0 -10 -43 -115 -61 -150 -5 -10 -9 -47 -9 -82 0 -36 -4 -67 -8
-70 -8 -5 -22 -123 -38 -318 -6 -83 7 -329 31 -573 8 -82 20 -203 26 -267 6
-65 14 -118 18 -118 3 0 5 -20 3 -45 -2 -25 0 -45 6 -45 12 0 23 -151 25 -350
l1 -155 -29 -47 c-17 -27 -37 -48 -45 -48 -8 0 -22 -5 -30 -11 -11 -7 -6 -8
20 -4 76 15 117 85 133 226 11 102 0 401 -24 629 -6 58 -12 263 -12 455 -2
349 2 416 39 630 8 50 16 99 18 110 1 11 8 33 14 48 7 16 12 34 12 42 0 8 5
26 12 42 6 15 12 33 13 38 2 6 15 41 29 79 14 37 26 77 26 88 0 10 7 21 15 24
10 4 13 15 10 33 -3 14 -3 21 1 14 3 -7 36 47 73 120 59 117 84 158 149 245
20 26 35 28 53 6 16 -19 69 -47 76 -40 3 3 1 11 -4 18 -14 20 -33 91 -33 129
0 34 -16 88 -36 123 -9 15 -11 8 -8 -35z"/>
<path d="M19640 17570 c-176 -9 -263 -45 -377 -153 -68 -64 -118 -140 -156
-236 l-31 -76 -4 -275 c-2 -151 1 -367 6 -480 10 -203 10 -206 47 -299 21 -52
50 -116 66 -143 16 -27 29 -52 29 -55 0 -3 32 -48 71 -99 161 -213 336 -362
636 -545 126 -77 370 -199 573 -287 l135 -59 7 -54 c3 -30 6 -224 7 -431 l1
-378 -88 0 -88 0 -19 -32 c-32 -55 -212 -331 -232 -357 l-19 -23 -279 11
c-154 6 -460 16 -679 22 -220 5 -403 12 -407 14 -4 3 -10 20 -13 38 -13 69 21
64 -533 72 l-503 7 0 -45 c0 -51 7 -60 100 -138 35 -30 74 -63 86 -75 12 -11
34 -30 49 -42 26 -20 28 -30 46 -169 17 -144 62 -383 74 -404 5 -6 49 -7 130
-3 l124 7 6 -29 c61 -264 141 -489 255 -715 85 -168 122 -232 135 -232 6 0 41
48 78 106 l69 107 -11 477 c-6 263 -11 527 -11 587 l0 108 78 -7 c42 -4 100
-11 127 -17 58 -11 324 -44 470 -58 560 -55 771 -64 1345 -56 466 6 515 8 905
45 256 24 560 62 765 96 41 7 78 11 83 8 4 -2 7 -260 7 -574 0 -373 3 -569 10
-569 6 0 10 -4 10 -9 0 -20 144 -241 152 -233 4 4 30 62 57 127 27 66 113 273
191 460 78 187 145 345 147 352 3 9 44 13 136 15 l131 3 52 205 c28 113 70
275 94 360 67 249 72 270 66 285 -5 13 -66 15 -463 13 l-458 -3 -32 -49 c-58
-89 5 -81 -658 -78 l-590 3 -113 174 c-62 95 -119 179 -127 185 -8 6 -48 14
-90 17 -41 3 -79 11 -82 17 -4 5 -10 197 -15 425 -6 324 -5 418 5 427 6 5 53
25 102 43 176 64 390 183 565 312 115 85 316 287 377 379 105 156 200 379 222
520 20 121 33 324 38 575 4 225 3 259 -16 342 -24 110 -46 160 -104 239 -85
116 -157 172 -327 257 l-105 52 -1055 1 c-580 1 -1111 -2 -1180 -6z"/>
<path d="M19590 12796 l0 -117 108 -51 c95 -45 288 -118 313 -118 5 0 33 47
61 105 29 57 57 106 63 108 5 2 37 0 70 -4 33 -5 81 -11 107 -14 l46 -6 111
-162 c163 -239 172 -247 272 -247 87 0 102 11 304 228 88 95 163 172 167 172
5 0 59 -41 121 -90 134 -108 130 -108 274 -26 119 67 150 95 159 142 6 31 -1
173 -9 181 -2 1 -490 6 -1085 9 l-1082 7 0 -117z"/>
<path d="M9345 11410 c-13 -6 -15 -9 -5 -9 8 0 22 4 30 9 18 12 2 12 -25 0z"/>
</g>
</svg>
